<?xml version="1.0" standalone="no"?>
<!DOCTYPE svg PUBLIC "-//W3C//DTD SVG 20010904//EN"
 "http://www.w3.org/TR/2001/REC-SVG-20010904/DTD/svg10.dtd">
<svg version="1.0" xmlns="http://www.w3.org/2000/svg"
 width="150.000000pt" height="150.000000pt" viewBox="0 0 150.000000 150.000000"
 preserveAspectRatio="xMidYMid meet">
<metadata>
Created by potrace 1.16, written by Peter Selinger 2001-2019
</metadata>
<g transform="translate(0.000000,150.000000) scale(0.100000,-0.100000)"
fill="#000000" stroke="none">
<path d="M631 1448 c-1 -16 4 -28 9 -28 19 0 10 -15 -20 -32 -31 -18 -40 -54
-19 -75 9 -9 6 -20 -11 -43 -12 -17 -28 -54 -35 -81 -8 -28 -21 -61 -29 -75
-22 -32 -28 -84 -10 -77 8 3 11 10 7 17 -3 7 -1 6 7 -1 12 -11 11 -16 -6 -29
-19 -15 -19 -16 1 -10 l20 6 -20 -17 c-11 -10 -20 -24 -20 -32 0 -14 -98 -101
-113 -101 -4 0 -18 10 -32 21 l-25 20 37 -3 c20 -2 36 -1 35 2 -1 3 4 15 11
27 11 20 10 23 -14 29 -19 5 -22 9 -12 15 10 7 10 9 0 9 -7 0 -15 -7 -18 -15
-4 -8 -15 -15 -25 -15 -22 0 -24 10 -6 30 10 12 9 12 -6 1 -17 -13 -17 -23 1
-69 4 -10 -6 -12 -42 -8 -37 4 -48 2 -53 -10 -4 -12 -12 -9 -40 18 -25 24 -32
28 -27 13 6 -16 5 -18 -7 -7 -16 15 -29 16 -29 1 0 -5 4 -8 9 -5 5 3 14 -1 21
-9 7 -8 17 -12 22 -9 12 8 48 -25 48 -44 0 -11 3 -12 14 -3 15 13 28 2 46 -40
l10 -24 -5 27 c-4 22 -2 25 15 21 29 -8 25 -18 -20 -54 -48 -39 -57 -62 -35
-95 10 -16 14 -35 11 -50 -4 -13 -2 -33 4 -43 8 -16 7 -18 -13 -14 -12 2 -32
9 -44 15 -12 6 -29 8 -37 5 -44 -17 11 -73 64 -65 27 4 30 2 30 -22 0 -15 9
-35 21 -46 17 -16 22 -16 30 -4 7 10 8 -2 5 -40 -3 -30 -10 -116 -16 -190 -6
-74 -13 -159 -16 -187 -3 -35 -2 -53 5 -53 6 0 11 19 11 43 0 23 4 89 10 147
5 58 14 156 20 219 11 130 32 185 85 225 32 25 105 37 105 18 0 -5 7 -17 15
-28 14 -18 14 -17 5 11 l-10 30 20 -25 c11 -14 20 -29 20 -34 0 -5 14 -31 30
-58 17 -26 30 -50 30 -53 0 -3 -11 -5 -24 -5 -18 0 -26 7 -29 22 -2 13 -5 4
-6 -19 -1 -37 -39 -158 -47 -150 -2 2 3 27 11 57 16 61 19 116 7 124 -4 2 -9
-22 -10 -55 -2 -33 -9 -77 -17 -97 -7 -20 -21 -102 -30 -182 -9 -80 -19 -156
-22 -169 -4 -15 -2 -22 4 -18 6 4 16 50 23 103 l13 96 22 -53 c21 -48 22 -56
9 -92 -19 -53 -18 -57 9 -57 19 0 25 8 33 38 7 24 15 36 24 34 8 -2 12 0 7 4
-4 4 -1 14 7 23 7 9 20 39 29 66 8 28 25 83 37 123 12 40 26 70 31 66 17 -10
49 7 49 26 0 17 7 19 50 19 l50 -2 0 -44 0 -45 -40 7 c-62 11 -71 -3 -69 -100
l2 -83 38 -23 c35 -22 38 -28 39 -66 0 -31 4 -43 15 -43 11 0 15 11 15 40 0
36 4 41 38 59 38 20 39 21 50 103 16 112 17 108 -23 108 l-35 0 0 47 c0 37 3
44 12 35 7 -7 22 -12 34 -12 13 0 24 -8 27 -20 6 -22 43 -28 50 -7 2 6 8 0 12
-14 4 -18 -5 -63 -30 -143 -28 -91 -35 -126 -30 -157 4 -25 12 -39 22 -39 11
0 13 5 8 18 -18 42 -15 76 18 183 20 63 37 125 39 139 2 15 15 -22 31 -90 34
-142 67 -253 73 -248 2 3 -16 84 -41 181 -28 109 -43 186 -39 204 4 21 0 33
-15 47 -12 11 -21 27 -21 37 0 10 -4 21 -10 24 -5 3 -10 33 -10 65 0 32 -4 62
-10 65 -5 3 -10 0 -10 -7 0 -20 -20 -37 -36 -31 -26 10 -13 38 30 64 53 32 91
101 74 133 -6 12 -39 48 -74 81 -63 59 -85 97 -45 75 11 -5 23 -10 28 -10 4 1
-4 7 -19 16 l-27 14 20 35 c12 19 25 35 30 35 5 0 9 5 9 11 0 5 -5 7 -11 3 -8
-5 -8 -1 0 14 9 17 7 26 -13 49 -12 15 -26 46 -29 68 -4 22 -20 59 -37 83 -17
24 -28 47 -25 52 4 6 -2 7 -12 3 -15 -5 -16 -3 -5 8 6 7 12 22 12 33 0 18 -1
18 -20 1 -19 -17 -19 -17 -13 19 8 50 -15 82 -66 91 -53 9 -99 -2 -106 -25 -7
-23 -29 -17 -43 13 -10 21 -11 21 -11 -5z m164 -190 c3 -3 9 -27 14 -54 8 -42
7 -51 -7 -62 -9 -7 -18 -22 -18 -33 -1 -18 0 -18 16 -4 21 19 30 19 30 0 0 -8
-4 -15 -10 -15 -5 0 -15 -10 -21 -22 -6 -13 -8 -20 -4 -16 5 4 14 3 21 -3 8
-6 20 -9 27 -6 20 7 48 -18 41 -37 -3 -9 -10 -16 -16 -16 -5 0 -7 -4 -3 -9 3
-5 0 -11 -7 -14 -7 -2 -3 -2 10 0 41 7 17 -44 -53 -108 -58 -54 -129 -27 -183
70 l-23 41 28 -4 c15 -2 21 -1 13 1 -23 8 -39 36 -40 69 0 36 27 43 49 12 12
-18 15 -18 30 -4 10 9 21 13 26 9 4 -5 2 3 -5 16 -11 21 -17 23 -56 17 -48 -6
-57 5 -26 34 15 15 21 15 51 3 18 -8 36 -11 40 -8 10 10 -30 35 -56 35 -26 0
-29 14 -12 57 19 52 38 64 91 60 27 -2 51 -6 53 -9z m15 -564 c0 -30 34 -63
97 -95 61 -30 63 -35 59 -89 -2 -25 -4 -51 -5 -57 -1 -7 -15 -20 -31 -28 -54
-28 -150 13 -193 82 -52 82 -70 125 -55 134 10 7 10 9 -3 9 -9 0 -22 7 -29 15
-11 13 -9 19 8 38 18 19 29 22 86 19 63 -4 66 -5 66 -28z m88 -444 c51 0 63
-3 54 -12 -7 -7 -12 -26 -12 -43 0 -56 -10 -74 -45 -81 -24 -4 -41 0 -68 18
-33 21 -36 27 -35 68 0 53 5 63 25 56 8 -3 44 -6 81 -6z"/>
<path d="M1305 867 c-11 -6 -32 -19 -47 -29 -15 -10 -33 -18 -40 -18 -9 0 -9
3 2 10 13 8 12 10 -3 10 -25 0 -16 -24 11 -28 13 -2 19 -8 15 -18 -3 -8 -1
-20 5 -27 14 -17 -4 -61 -22 -54 -13 5 -46 -21 -46 -36 0 -12 30 -8 60 8 29
15 30 15 30 -7 0 -13 4 -29 9 -37 7 -11 13 -9 31 9 17 17 21 29 15 56 -5 29
-3 34 13 34 18 0 52 29 52 44 0 5 -10 6 -23 2 -17 -4 -25 0 -32 17 -6 13 -20
23 -35 24 -19 1 -20 0 -5 -4 34 -9 40 -21 25 -50 -18 -37 -41 -63 -53 -63 -6
0 -3 8 5 18 8 9 18 25 22 36 5 15 2 17 -19 12 -28 -7 -31 1 -14 38 11 24 61
50 73 39 3 -4 6 -1 6 5 0 17 -13 21 -35 9z"/>
<path d="M1137 661 c-5 -20 40 -96 62 -106 8 -3 18 0 22 7 6 9 13 9 34 -2 30
-16 71 -6 89 22 14 22 6 28 -37 30 -30 1 -38 6 -46 30 -12 32 -31 37 -38 8 -5
-19 -6 -18 -38 5 -38 30 -41 30 -48 6z"/>
</g>
</svg>
